<svg width="156" height="35" viewBox="0 0 156 35" fill="none" xmlns="http://www.w3.org/2000/svg">
<path d="M8.10592 8.11133H18.7628C19.0516 8.11133 19.1931 8.45675 18.9893 8.65494L8.88734 18.7569C8.76277 18.8814 8.55892 18.8814 8.43434 18.7569L7.35846 17.681C7.23389 17.5564 7.23389 17.3526 7.35846 17.228L15.671 8.91541H15.0029C14.9179 8.91541 14.833 8.94939 14.7764 9.00601L6.55439 17.228C6.42981 17.3526 6.42981 17.5564 6.55439 17.681L8.42868 19.5609C8.55325 19.6855 8.7571 19.6855 8.88168 19.5609L20.1048 8.33783C20.2294 8.21326 20.2294 8.00941 20.1048 7.88483L17.5906 5.37068C17.5283 5.30839 17.4491 5.27441 17.3641 5.27441H5.59742C5.42188 5.27441 5.27466 5.41598 5.27466 5.59718V10.1782C5.27466 10.4669 5.62007 10.6085 5.82392 10.4047L8.10592 8.12266V8.11133Z" fill="#9D8A57"/>
<path d="M26.8884 26.8885H16.2316C15.9428 26.8885 15.8012 26.5431 16.0051 26.3393L26.107 16.2374C26.2316 16.1128 26.4354 16.1128 26.56 16.2374L27.6359 17.3132C27.7605 17.4378 27.7605 17.6417 27.6359 17.7662L19.3233 26.0788H19.9915C20.0764 26.0788 20.1614 26.0448 20.218 25.9882L28.44 17.7662C28.5645 17.6417 28.5645 17.4378 28.44 17.3132L26.5657 15.4333C26.4411 15.3087 26.2373 15.3087 26.1127 15.4333L14.8896 26.6564C14.765 26.781 14.765 26.9848 14.8896 27.1094L17.3981 29.6179C17.4604 29.6802 17.5396 29.7141 17.6246 29.7141H29.4026C29.5781 29.7141 29.7254 29.5726 29.7254 29.3914V24.8104C29.7254 24.5216 29.3799 24.38 29.1761 24.5839L26.8941 26.8659V26.8772L26.8884 26.8885Z" fill="#9D8A57"/>
<path d="M27.1263 13.7575L30.637 17.2683C30.7616 17.3928 30.7616 17.5967 30.637 17.7213L22.8227 25.5355C22.6189 25.7394 22.7661 26.0848 23.0492 26.0848H26.4071C26.4921 26.0848 26.5713 26.0508 26.6336 25.9885L34.9009 17.7213C35.0255 17.5967 35.0255 17.3928 34.9009 17.2683L29.2554 11.6227C29.1308 11.4982 28.9269 11.4982 28.8024 11.6227L27.1206 13.3045C26.996 13.4291 26.996 13.6329 27.1206 13.7575H27.1263Z" fill="#9D8A57"/>
<path d="M8.08324 21.4523L4.3573 17.7264C4.23273 17.6018 4.23273 17.398 4.3573 17.2734L12.1659 9.46479C12.3698 9.26094 12.2225 8.91553 11.9394 8.91553H8.58154C8.4966 8.91553 8.41733 8.9495 8.35504 9.01179L0.0934315 17.2677C-0.0311438 17.3923 -0.0311438 17.5962 0.0934315 17.7207L5.95413 23.5814C6.07871 23.706 6.28256 23.706 6.40713 23.5814L8.0889 21.8997C8.21348 21.7751 8.21348 21.5712 8.0889 21.4467L8.08324 21.4523Z" fill="#9D8A57"/>
<path d="M31.645 7.20555L29.7197 5.28029H24.4479C24.2441 5.28029 24.0912 5.47282 24.1365 5.67101L24.38 6.74689L17.7265 0.0934315C17.6019 -0.0311438 17.3981 -0.0311438 17.2735 0.0934315L13.44 3.92695C13.2361 4.1308 13.3834 4.47622 13.6665 4.47622H17.1603L17.5 4.13647L22.0187 8.65515C22.1433 8.77973 22.1433 8.98358 22.0187 9.10815L3.56456 27.5566C3.43999 27.6812 3.43999 27.885 3.56456 28.0096L5.18404 29.6291C5.24633 29.6914 5.3256 29.7254 5.41054 29.7254H10.6031C10.7899 29.7254 10.9428 29.5612 10.9202 29.3743L10.8352 28.474L17.2678 34.9066C17.3924 35.0311 17.5963 35.0311 17.7208 34.9066L21.5544 31.073C21.7582 30.8692 21.611 30.5238 21.3279 30.5238H17.97C17.8114 30.5238 17.8454 30.5125 17.7208 30.637C17.5963 30.7616 17.3924 30.7616 17.2678 30.637L13.1908 26.5657C13.0663 26.4411 13.0663 26.2373 13.1908 26.1127L31.645 7.65855C31.7695 7.53397 31.7695 7.33012 31.645 7.20555Z" fill="#9D8A57"/>
<path d="M49.6605 13.2729H52.2727L54.4886 18.6764H54.5909L56.8068 13.2729H59.419V22.0002H57.3651V16.6394H57.2926L55.196 21.9448H53.8835L51.7869 16.6096H51.7145V22.0002H49.6605V13.2729Z" fill="#9D8A57"/>
<path d="M68.6225 22.0002H66.3555L69.3001 13.2729H72.1083L75.0529 22.0002H72.7859L70.7362 15.4718H70.668L68.6225 22.0002ZM68.32 18.5656H73.0586V20.1678H68.32V18.5656Z" fill="#9D8A57"/>
<path d="M84.1019 13.2729V22.0002H81.9926V13.2729H84.1019Z" fill="#9D8A57"/>
<path d="M98.8537 13.2729V22.0002H97.0639L93.5909 16.9633H93.5355V22.0002H91.4261V13.2729H93.2415L96.6761 18.3014H96.7486V13.2729H98.8537Z" fill="#9D8A57"/>
<path d="M113.608 13.2729V22.0002H111.818L108.345 16.9633H108.289V22.0002H106.18V13.2729H107.995L111.43 18.3014H111.502V13.2729H113.608Z" fill="#9D8A57"/>
<path d="M120.934 22.0002V13.2729H127.019V14.986H123.043V16.7758H126.708V18.4931H123.043V20.2872H127.019V22.0002H120.934Z" fill="#9D8A57"/>
<path d="M134.055 14.986V13.2729H141.431V14.986H138.785V22.0002H136.705V14.986H134.055Z" fill="#9D8A57"/>
<path d="M148.431 22.0002V20.7985L152.672 14.986H148.436V13.2729H155.339V14.4747L151.099 20.2872H155.335V22.0002H148.431Z" fill="#9D8A57"/>
</svg>
